<svg width="1047" height="194" viewBox="0 0 1047 194" fill="none" xmlns="http://www.w3.org/2000/svg">
<path fill-rule="evenodd" clip-rule="evenodd" d="M107.523 76.4092C113.383 82.5984 117.961 89.8865 120.991 97.8534C124.021 105.82 125.444 114.308 125.178 122.828C125.48 136.152 121.692 149.25 114.324 160.357C93.1202 189.644 45.5027 194.089 19.1097 169.77C12.8633 163.684 7.94305 156.373 4.6581 148.294C1.37314 140.216 -0.20548 131.545 0.0214085 122.828C-0.138178 114.204 1.48673 105.641 4.79413 97.6755C8.10152 89.7101 13.02 82.5143 19.2407 76.5402C42.257 55.095 84.7475 54.4404 107.502 76.4092H107.523ZM88.1723 87.1318C95.2534 97.6503 98.7815 110.159 98.2402 122.828C98.7361 132.958 96.902 143.066 92.879 152.377C90.5327 157.413 86.936 161.765 82.4315 165.017C77.927 168.269 72.6647 170.314 67.146 170.957C61.6273 171.599 56.036 170.818 50.9048 168.687C45.7736 166.557 41.2734 163.148 37.8329 158.785C30.1286 148.401 26.0818 135.756 26.3247 122.828C25.6229 109.978 29.1601 97.2526 36.3926 86.6081C39.6047 82.8621 43.5976 79.8645 48.0912 77.8257C52.5848 75.7869 57.4703 74.7563 62.4045 74.8062C67.3388 74.8561 72.2023 75.9853 76.6538 78.1146C81.1052 80.2439 85.0367 83.3216 88.1723 87.1318Z" fill="#F7FAF8"/>
<path fill-rule="evenodd" clip-rule="evenodd" d="M415.189 76.4092C425.271 87.7724 431.387 102.105 432.613 117.247C433.84 132.388 430.112 147.518 421.99 160.357C400.807 189.644 353.21 194.123 326.804 169.77C320.578 163.669 315.671 156.355 312.387 148.28C309.104 140.205 307.514 131.542 307.715 122.828C307.556 114.204 309.181 105.641 312.488 97.6756C315.795 89.7101 320.714 82.5143 326.935 76.5402C349.951 55.095 392.441 54.4404 415.196 76.4092H415.189ZM395.839 87.1318C402.92 97.6503 406.448 110.159 405.907 122.828C406.402 132.958 404.568 143.067 400.545 152.377C398.199 157.413 394.602 161.765 390.098 165.017C385.593 168.269 380.331 170.314 374.812 170.957C369.294 171.599 363.702 170.818 358.571 168.687C353.44 166.557 348.94 163.148 345.499 158.785C337.795 148.401 333.748 135.756 333.991 122.828C333.289 109.978 336.826 97.2526 344.059 86.6081C347.271 82.8621 351.264 79.8645 355.758 77.8257C360.251 75.7869 365.137 74.7563 370.071 74.8062C375.005 74.8561 379.869 75.9853 384.32 78.1146C388.772 80.2439 392.703 83.3216 395.839 87.1318Z" fill="#F7FAF8"/>
<path fill-rule="evenodd" clip-rule="evenodd" d="M1029.34 76.4092C1039.43 87.7719 1045.54 102.105 1046.77 117.247C1048 132.388 1044.27 147.519 1036.15 160.357C1014.96 189.644 967.366 194.123 940.959 169.77C934.728 163.671 929.817 156.358 926.528 148.283C923.24 140.208 921.646 131.544 921.844 122.828C921.684 114.204 923.309 105.641 926.616 97.6756C929.924 89.7101 934.842 82.5143 941.063 76.5402C964.079 55.095 1006.57 54.4404 1029.32 76.4092H1029.34ZM1009.99 87.1318C1017.08 97.6503 1020.6 110.159 1020.06 122.828C1020.56 132.958 1018.72 143.066 1014.7 152.377C1012.35 157.413 1008.76 161.765 1004.25 165.017C999.749 168.269 994.487 170.314 988.968 170.957C983.449 171.599 977.858 170.818 972.727 168.687C967.596 166.557 963.095 163.148 959.655 158.785C951.951 148.401 947.904 135.756 948.147 122.828C947.445 109.978 950.982 97.2526 958.215 86.6081C961.427 82.8632 965.421 79.8665 969.914 77.8284C974.408 75.7903 979.293 74.7601 984.227 74.81C989.16 74.8599 994.024 75.9888 998.475 78.1173C1002.93 80.2459 1006.86 83.3227 1009.99 87.1318Z" fill="#F7FAF8"/>
<path fill-rule="evenodd" clip-rule="evenodd" d="M531.801 63.2058H557.952V181.933H531.801V63.2058Z" fill="#F7FAF8"/>
<path fill-rule="evenodd" clip-rule="evenodd" d="M876.473 63.2058H902.624V181.933H876.473V63.2058Z" fill="#F7FAF8"/>
<path fill-rule="evenodd" clip-rule="evenodd" d="M864.441 63.2058V78.2422C851.499 74.9758 841.17 75.4857 835.023 80.5989C831.652 83.5673 829.469 87.6548 828.876 92.1071C828.484 94.8773 828.353 97.6781 828.483 100.473V181.926H802.332V104.132C801.967 97.6606 803.098 91.1921 805.638 85.2287C808.177 79.2652 812.057 73.967 816.975 69.7454C828.09 61.3796 844.539 60.0979 864.441 63.2058Z" fill="#F7FAF8"/>
<path fill-rule="evenodd" clip-rule="evenodd" d="M517.681 182.194L514.415 168.991C501.466 172.257 491.136 171.747 484.996 166.634C481.626 163.666 479.442 159.578 478.85 155.126C478.458 152.356 478.327 149.555 478.457 146.76V78.6349H516.248V63.3367H478.457V42.939C478.85 27.6408 468.809 23.0651 452.305 24.7672V143.225C451.94 149.697 453.072 156.165 455.611 162.129C458.151 168.092 462.03 173.39 466.949 177.612C477.933 185.978 496.105 187.418 517.681 182.187V182.194Z" fill="#F7FAF8"/>
<path fill-rule="evenodd" clip-rule="evenodd" d="M671.717 179.052C647.791 189.251 613.267 186.377 596.797 173.036C583.704 162.575 576.53 145.472 576.53 122.828C576.371 114.204 577.996 105.641 581.303 97.6755C584.61 89.71 589.529 82.5143 595.749 76.5401C614.183 59.3123 645.696 55.6187 668.451 64.6392V80.5921C660.521 76.3071 651.545 74.3409 642.55 74.9185C633.555 75.4962 624.904 78.5943 617.587 83.8584C607.251 92.4861 603.468 107.288 603.598 122.042C603.107 135.247 607.068 148.234 614.845 158.916C618.969 163.198 624.038 166.457 629.646 168.432C635.254 170.408 641.245 171.045 647.143 170.294C654.314 170.09 661.322 168.113 667.541 164.539L671.724 179.052H671.717Z" fill="#F7FAF8"/>
<path fill-rule="evenodd" clip-rule="evenodd" d="M689.751 81.7705V66.0725C724.531 55.6119 742.578 41.3611 754.734 25.415H776.048C764.772 41.4093 749.038 53.7324 730.808 60.8491C741.282 60.4259 751.711 62.4405 761.274 66.7341C766.66 69.403 771.297 73.3705 774.766 78.2789C778.236 83.1872 780.429 88.8821 781.148 94.8498C781.913 100.351 782.219 105.906 782.064 111.457V183.221H778.012C765.608 183.221 758.4 179.038 757.339 168.97C752.635 174.209 746.864 178.379 740.412 181.198C733.961 184.018 726.981 185.422 719.941 185.316C708.71 186.028 697.615 182.532 688.821 175.51C685.56 172.408 682.962 168.677 681.185 164.542C679.409 160.407 678.49 155.954 678.484 151.453C678.047 144.586 679.634 137.741 683.051 131.768C686.467 125.795 691.562 120.956 697.704 117.852C709.192 111.871 722.025 108.945 734.971 109.355L756.416 109.486V102.168C756.586 96.6644 755.081 91.2386 752.102 86.608C749.468 82.7673 745.857 79.6987 741.641 77.7185C729.478 72.2056 711.32 74.4521 689.731 81.7705H689.751ZM756.436 123.744H739.209C729.274 123.071 719.395 125.692 711.1 131.2C708.482 133.562 706.464 136.514 705.213 139.81C703.962 143.107 703.514 146.654 703.906 150.158C703.697 153.961 704.584 157.744 706.461 161.058C708.339 164.372 711.128 167.077 714.497 168.853C717.497 170.349 720.793 171.154 724.145 171.21C730.625 171.232 736.971 169.364 742.406 165.834C747.84 162.304 752.127 157.266 754.741 151.336C755.892 148.378 756.47 145.228 756.443 142.054V123.744H756.436Z" fill="#F7FAF8"/>
<path fill-rule="evenodd" clip-rule="evenodd" d="M172.099 16.0019H163.209C163.078 16.0019 163.078 16.0019 162.947 15.871C162.816 15.871 162.685 15.8709 162.685 15.74H162.554C162.424 15.74 162.423 15.74 162.293 15.6091H162.162L161.9 15.4782H161.769L161.507 15.3472H161.376L161.114 15.2163H160.983L160.721 15.0853L160.59 14.9544H160.46L160.329 14.8235L160.198 14.6925H160.067L159.805 14.5616L159.674 14.4307L159.543 14.2997L159.412 14.1688L159.281 14.0379L159.15 13.9069L158.888 13.776L158.757 13.645L158.627 13.5141L158.496 13.3832L158.365 13.2523L158.103 12.9905L157.972 12.8596L157.841 12.7286L157.71 12.5977L157.448 12.3358L157.055 11.943L156.793 11.6811V11.5571C156.632 11.4079 156.499 11.2305 156.401 11.0334C156.198 10.7448 156.023 10.4379 155.877 10.1168C154.298 7.01754 153.75 3.49517 154.313 0.0627258H220.081C235.595 -0.576173 250.918 3.67873 263.881 12.2256C269.332 16.2271 273.752 21.4681 276.776 27.5157C279.8 33.5632 281.342 40.2436 281.274 47.0049C281.466 57.4101 277.624 67.4858 270.552 75.1206C265.387 80.2532 259.311 84.3779 252.635 87.2834C260.37 89.4742 267.639 93.064 274.08 97.875C280.158 102.714 285.041 108.887 288.351 115.916C291.661 122.944 293.309 130.641 293.168 138.408C293.366 150.377 289.18 162.004 281.398 171.1C258.513 196.597 206.974 200.518 178.494 179.369C169.01 172.377 162.26 162.299 159.405 150.868C157.127 141.492 155.943 131.883 155.877 122.235V30.1217C162.29 29.0053 168.89 29.8258 174.834 32.4785C177.857 34.8749 180.207 38.0133 181.656 41.5879C183.105 45.1625 183.604 49.0515 183.104 52.8761L182.973 123.22C182.7 135.641 185.722 147.912 191.731 158.785C195.763 165.856 202.082 171.344 209.648 174.345C216.505 176.905 223.859 177.848 231.14 177.1C238.42 176.351 245.429 173.933 251.622 170.032C263.785 161.142 264.956 146.237 264.825 137.078C265.126 131.064 263.963 125.066 261.435 119.6C258.907 114.133 255.09 109.362 250.313 105.696C242.521 100.449 233.29 97.754 223.899 97.9853H199.973V80.3302H226.125C228.354 80.1087 230.549 79.6253 232.664 78.89C236.473 78.0555 240.021 76.3052 243.001 73.7906C246.848 69.8998 249.8 65.217 251.652 60.0684C253.504 54.9199 254.211 49.4295 253.724 43.9797C252.676 29.3361 244.179 15.6091 212.536 15.6091H172.099V16.0019Z" fill="#F7FAF8"/>
</svg>
